<?xml version="1.0" encoding="UTF-8"?>
<svg version="1.1" xmlns="http://www.w3.org/2000/svg" width="612" height="408">
<path d="M0 0 C1.16971518 0.64478765 2.340323 1.28795802 3.51171875 1.9296875 C11.08230231 6.11316168 18.09522059 10.78350487 25 16 C26.95607957 17.41977696 28.91439461 18.83647943 30.875 20.25 C40.56323704 27.24866676 40.56323704 27.24866676 44.5 31.9375 C47.18765497 35.12592087 50.04922432 38.05368842 53 41 C64.40468626 53.14887459 73 66.85093307 73 84 C72.36003286 92.32957231 69.44986576 97.92513424 63.5625 103.8125 C52.33532452 113.39667419 36.57743169 117.13345041 22 116 C22.33 115.01 22.66 114.02 23 113 C25.47651392 112.2889814 27.85472726 111.74183712 30.375 111.25 C39.35827376 109.2429172 47.34479148 105.89090853 53.125 98.375 C57.05685057 91.29766897 57.01099586 82.39768974 55.5390625 74.5390625 C54.84028408 72.26186695 53.99486496 70.16440086 53 68 C52.62101563 67.16210938 52.24203125 66.32421875 51.8515625 65.4609375 C48.60213501 58.94329971 44.43042503 53.63642801 39.60742188 48.23925781 C36 44.18527403 36 44.18527403 36 42 C35.360625 41.731875 34.72125 41.46375 34.0625 41.1875 C32 40 32 40 31 37 C29.68402027 36.29970037 28.34668596 35.63926454 27 35 C25.37006352 33.69829514 23.76885757 32.36030758 22.1875 31 C12.90450256 23.2952364 2.74455679 16.49918261 -8 11 C-8.5573584 10.70915527 -9.1147168 10.41831055 -9.68896484 10.11865234 C-19.23774786 5.14517329 -28.88255873 0.71465009 -39 -3 C-39.76908691 -3.28762207 -40.53817383 -3.57524414 -41.33056641 -3.87158203 C-66.74946187 -13.27240303 -101.77443248 -21.55781648 -128 -10 C-136.30472759 -5.49324767 -141.4992876 -0.5021372 -144.51953125 8.55859375 C-146.7128668 19.70359147 -142.29626599 30.95310729 -136.171875 40.109375 C-135 42 -135 42 -135 44 C-135.99 44 -136.98 44 -138 44 C-139.77667871 41.91014402 -141.3283544 39.87629272 -142.875 37.625 C-143.31972656 36.98739746 -143.76445312 36.34979492 -144.22265625 35.69287109 C-152.7446274 23.26291391 -156.32502631 12.21326509 -155 -3 C-152.90516052 -10.99436038 -148.26622051 -16.7525642 -141.375 -21.125 C-100.09286355 -44.49571915 -37.81403768 -21.64962876 0 0 Z " fill="#1D194C" transform="translate(347,152)"/>
<path d="M0 0 C3.82763672 0.77685547 3.82763672 0.77685547 5.37890625 2.78515625 C7.96741527 7.7656868 10.17668168 12.69404722 12 18 C14.36415741 24.66919513 16.89016237 31.23038487 19.640625 37.75 C23.27020545 46.42761763 26.75657333 55.17067185 30 64 C30.23074219 63.26394531 30.46148437 62.52789062 30.69921875 61.76953125 C32.91662443 55.13484312 34.68369335 50.30360264 41.14453125 46.85546875 C50.77056953 42.33777583 60.81011199 41.61543684 71 45 C72.8125 46.125 72.8125 46.125 74 48 C74.07421875 51.35546875 74.07421875 51.35546875 73.6875 55.1875 C73.56761719 56.45980469 73.44773437 57.73210937 73.32421875 59.04296875 C73.21722656 60.01878906 73.11023438 60.99460938 73 62 C71.515 62.495 71.515 62.495 70 63 C69.608125 62.278125 69.21625 61.55625 68.8125 60.8125 C66.49409797 57.21497961 63.8818479 53.94092395 60 52 C55.37876647 51.43620951 51.77592758 51.68690642 47.4375 53.4375 C44.86076843 56.14637165 44.52250232 56.76391417 44.25 60.3125 C44.58575943 64.68451641 45.91260298 67.11875079 48.93359375 70.234375 C52.37729186 73.17681648 56.05909315 75.75877122 59.8046875 78.30078125 C60.52914062 78.86152344 61.25359375 79.42226562 62 80 C62 80.66 62 81.32 62 82 C62.59683594 82.26554687 63.19367188 82.53109375 63.80859375 82.8046875 C69.08804579 85.68438861 72.69046844 91.05634669 74.53125 96.69921875 C76.02375615 104.02493645 76.15670387 112.52781679 72 119 C67.35109099 124.41281424 62.07792234 127.89564332 55 129 C46.24653879 129.55097928 37.04831196 130.02415598 29 126 C27.72396393 122.17189179 28.13716013 118.76524893 28.4375 114.8125 C28.48970703 114.06291016 28.54191406 113.31332031 28.59570312 112.54101562 C28.72513784 110.69362918 28.86186518 108.84675629 29 107 C30.32 106.67 31.64 106.34 33 106 C33.25394531 106.67546875 33.50789063 107.3509375 33.76953125 108.046875 C34.11371094 108.93890625 34.45789063 109.8309375 34.8125 110.75 C35.14894531 111.63171875 35.48539062 112.5134375 35.83203125 113.421875 C36.9867431 115.97073727 38.13690405 117.91633602 40 120 C44.91021075 121.63673692 49.87617008 121.48468661 55 121 C58.90585344 119.04707328 59.70828311 117.64420813 61.5 113.6875 C62.23400753 108.27419446 60.65035334 105.24643783 57.55078125 101.02734375 C52.47955528 94.89222422 44.9832773 86.83306612 36.70996094 85.68115234 C35.4845459 85.634021 35.4845459 85.634021 34.234375 85.5859375 C33.34492188 85.54726562 32.45546875 85.50859375 31.5390625 85.46875 C30.61867188 85.4378125 29.69828125 85.406875 28.75 85.375 C27.81414062 85.33632812 26.87828125 85.29765625 25.9140625 85.2578125 C23.60956946 85.16375156 21.30507987 85.07810601 19 85 C19 83.68 19 82.36 19 81 C18.08419668 77.94732226 17.08729712 74.99307621 16 72 C15.76941895 71.36288086 15.53883789 70.72576172 15.30126953 70.06933594 C14.51983839 67.91878166 13.73023611 65.77141132 12.9375 63.625 C12.6801709 62.9227832 12.4228418 62.22056641 12.15771484 61.49707031 C10.99643803 58.39082374 9.84845862 55.77268793 8 53 C6.948125 53.45375 5.89625 53.9075 4.8125 54.375 C-0.93027305 56.55828849 -6.93726726 57.2144325 -13 58 C-13.18175781 58.64066406 -13.36351562 59.28132813 -13.55078125 59.94140625 C-14.72855534 63.9941571 -15.88364633 67.92754817 -17.6875 71.75 C-19.04545633 75.11255854 -19.2623787 77.41415777 -19 81 C-18.34 81.33 -17.68 81.66 -17 82 C-17 82.99 -17 83.98 -17 85 C-24.59 85 -32.18 85 -40 85 C-40 84.01 -40 83.02 -40 82 C-38.96875 81.7525 -37.9375 81.505 -36.875 81.25 C-29.66719783 78.15733216 -27.18505197 67.58780662 -24.40234375 60.81640625 C-23.57533426 58.73390519 -22.75371664 56.64925483 -21.9375 54.5625 C-21.52951172 53.53318359 -21.12152344 52.50386719 -20.70117188 51.44335938 C-18.62776389 46.19924217 -16.59455334 40.94111025 -14.5859375 35.671875 C-11.75253517 28.28797426 -8.72694813 20.98823421 -5.6875 13.6875 C-5.13200724 12.3496734 -4.57666797 11.01178306 -4.02148438 9.67382812 C-2.68274914 6.44848575 -1.34197031 3.22399793 0 0 Z M-1 27 C-4.61197308 34.52000953 -7.47410712 42.048115 -10 50 C-4.06 50 1.88 50 8 50 C7.25372992 47.01491968 6.43620612 44.31924555 5.37109375 41.453125 C5.05849609 40.60878906 4.74589844 39.76445312 4.42382812 38.89453125 C4.09833984 38.02183594 3.77285156 37.14914063 3.4375 36.25 C3.10814453 35.36183594 2.77878906 34.47367188 2.43945312 33.55859375 C1.62818221 31.37168954 0.81496955 29.18552799 0 27 C-0.33 27 -0.66 27 -1 27 Z " fill="#221D4F" transform="translate(265,156)"/>
<path d="M0 0 C0.83789062 0.57105469 1.67578125 1.14210937 2.5390625 1.73046875 C19.48843473 13.57549113 37.73134722 29.62500461 42.58984375 50.5390625 C44.14202406 59.85214436 42.19131374 67.30689155 36.875 75.125 C36.25625 75.74375 35.6375 76.3625 35 77 C34.34 77 33.68 77 33 77 C33 77.66 33 78.32 33 79 C21.24726199 85.82007739 11.81163257 89.45284041 -2 89 C-2 88.34 -2 87.68 -2 87 C-1.17757812 86.78085937 -0.35515625 86.56171875 0.4921875 86.3359375 C10.35252691 83.53496349 19.97756659 80.18096348 25.94140625 71.328125 C29.34454335 63.84373493 28.5649511 54.64480548 26 47 C24.1563807 43.0044428 22.04373834 39.34089679 19.33984375 35.8671875 C18 34 18 34 18 32 C17.34 32 16.68 32 16 32 C14.66015625 30.6015625 14.66015625 30.6015625 13.0625 28.625 C6.92880935 21.41342229 -0.02118567 15.0998607 -8 10 C-8.95777344 9.38640625 -9.91554688 8.7728125 -10.90234375 8.140625 C-39.51797115 -9.68429606 -70.88747705 -21.87677159 -105 -22 C-106.11036621 -22.00604248 -106.11036621 -22.00604248 -107.24316406 -22.01220703 C-120.62238878 -21.96177536 -133.35028516 -19.66837254 -144 -11 C-144.66 -11 -145.32 -11 -146 -11 C-146.33 -10.01 -146.66 -9.02 -147 -8 C-147.66 -8 -148.32 -8 -149 -8 C-148.47079307 -15.54119874 -146.76264672 -20.23735328 -141.375 -25.625 C-103.90272044 -54.01025176 -33.35744806 -23.584301 0 0 Z " fill="#696769" transform="translate(355,177)"/>
<path d="M0 0 C0 3.69418201 -1.28179295 5.77836178 -3 9 C-1.35 8.01 0.3 7.02 2 6 C2 6.99 2 7.98 2 9 C1.67 9.33 1.34 9.66 1 10 C1.66 10 2.32 10 3 10 C3 11.32 3 12.64 3 14 C3.66 14 4.32 14 5 14 C5 13.01 5 12.02 5 11 C6.65 10.67 8.3 10.34 10 10 C10.33 8.35 10.66 6.7 11 5 C11.99 5 12.98 5 14 5 C14 4.01 14 3.02 14 2 C16.31 2.33 18.62 2.66 21 3 C19.16962599 5.0337489 17.46484417 6.33738085 15.125 7.8125 C8.74948567 12.27536003 5.49537116 17.40156931 4 25 C3.44434392 35.61920507 6.97682604 45.36139338 12.828125 54.109375 C14 56 14 56 14 58 C13.01 58 12.02 58 11 58 C9.22332129 55.91014402 7.6716456 53.87629272 6.125 51.625 C5.68027344 50.98739746 5.23554688 50.34979492 4.77734375 49.69287109 C-3.72903168 37.28566148 -7.36647917 26.19394699 -6 11 C-4.75805392 6.65318871 -3.20522824 3.20522824 0 0 Z " fill="#2B2756" transform="translate(198,138)"/>
<path d="M0 0 C0.99 0.33 1.98 0.66 3 1 C3.84375 2.92578125 3.84375 2.92578125 4.5 5.3125 C5.54216864 8.72668789 6.41950113 11.41950113 9 14 C11.82411765 14.94137255 13.52918032 15.11725382 16.44921875 15.09765625 C17.29677734 15.09443359 18.14433594 15.09121094 19.01757812 15.08789062 C20.33918945 15.07532227 20.33918945 15.07532227 21.6875 15.0625 C22.58017578 15.05798828 23.47285156 15.05347656 24.39257812 15.04882812 C26.59511987 15.03704983 28.79752599 15.02060164 31 15 C31 13.35 31 11.7 31 10 C31.495 10.99 31.495 10.99 32 12 C32.66 12 33.32 12 34 12 C33.505 10.02 33.505 10.02 33 8 C35.475 8.495 35.475 8.495 38 9 C37.23221326 13.86264933 35.37502843 15.62497157 32 19 C31.54625 19.53625 31.0925 20.0725 30.625 20.625 C26.76634442 23.89001626 21.00228706 23.19256583 16.1875 23.1875 C15.12281494 23.18737915 15.12281494 23.18737915 14.03662109 23.18725586 C8.26751645 23.12433222 3.21203836 22.60601918 -2 20 C-3.26621664 16.20135008 -2.93953998 12.80406168 -2.6875 8.875 C-2.65205078 8.13378906 -2.61660156 7.39257812 -2.58007812 6.62890625 C-2.46477495 4.74619477 -2.24065411 2.87082414 -2 1 C-1.34 0.67 -0.68 0.34 0 0 Z " fill="#241C4C" transform="translate(296,262)"/>
<path d="M0 0 C1.89755743 2.99614331 1.22363582 5.60783593 0.875 9.0625 C0.75511719 10.33480469 0.63523437 11.60710937 0.51171875 12.91796875 C0.40472656 13.89378906 0.29773438 14.86960938 0.1875 15.875 C-0.8025 16.205 -1.7925 16.535 -2.8125 16.875 C-3.4003125 15.7921875 -3.4003125 15.7921875 -4 14.6875 C-6.31840203 11.08997961 -8.9306521 7.81592395 -12.8125 5.875 C-17.37556876 5.31830561 -21.04766008 5.59321687 -25.375 7.1875 C-28.27583241 10.38585368 -28.17130813 11.43130443 -28.1875 15.625 C-28.09119612 17.37681351 -27.97514275 19.12809636 -27.8125 20.875 C-28.8025 20.875 -29.7925 20.875 -30.8125 20.875 C-30.72549202 18.43577639 -30.61863998 16.00021586 -30.5 13.5625 C-30.46616211 12.52706055 -30.46616211 12.52706055 -30.43164062 11.47070312 C-30.15625102 6.28837148 -30.15625102 6.28837148 -28.26953125 4.01953125 C-27.54830078 3.45298828 -27.54830078 3.45298828 -26.8125 2.875 C-26.8125 2.215 -26.8125 1.555 -26.8125 0.875 C-27.555 1.638125 -28.2975 2.40125 -29.0625 3.1875 C-34.88226744 8.875 -34.88226744 8.875 -38.8125 8.875 C-35.86596234 2.30195445 -31.28226641 0.3801671 -24.8125 -2.125 C-17.51014218 -4.26227546 -6.63421701 -4.11778987 0 0 Z " fill="#3D365F" transform="translate(337.8125,202.125)"/>
<path d="M0 0 C3.81445312 0.80322266 3.81445312 0.80322266 5.484375 2.57421875 C9.64166559 9.51586754 9.73927112 16.047555 9 24 C8.67 24.66 8.34 25.32 8 26 C5.67843403 26.40729228 3.3431213 26.74438677 1 27 C0.67 26.01 0.34 25.02 0 24 C-0.86625 25.2375 -0.86625 25.2375 -1.75 26.5 C-2.4925 27.325 -3.235 28.15 -4 29 C-5.32 29 -6.64 29 -8 29 C-8.66 29.33 -9.32 29.66 -10 30 C-9.690625 29.154375 -9.38125 28.30875 -9.0625 27.4375 C-7.90866357 24.09058127 -7.90866357 24.09058127 -7.65625 20.84375 C-6.86841519 16.22928898 -5.28783849 12.33843072 -3.4375 8.0625 C-3.10814453 7.28326172 -2.77878906 6.50402344 -2.43945312 5.70117188 C-1.63366651 3.79764697 -0.81785783 1.89836975 0 0 Z " fill="#262153" transform="translate(265,156)"/>
<path d="M0 0 C-0.66 0 -1.32 0 -2 0 C-2 2.31 -2 4.62 -2 7 C-0.54207031 6.76603516 -0.54207031 6.76603516 0.9453125 6.52734375 C15.26390571 4.43473477 29.7048788 4.70886414 44 7 C44 7.33 44 7.66 44 8 C42.82566406 7.98839844 41.65132813 7.97679687 40.44140625 7.96484375 C35.29371426 7.92767435 30.14753547 7.94980839 25 8 C23.84830322 8.00870117 23.84830322 8.00870117 22.67333984 8.01757812 C9.26344655 8.19673502 -3.28800782 10.2809366 -14 19 C-14.66 19 -15.32 19 -16 19 C-16.33 19.99 -16.66 20.98 -17 22 C-17.66 22 -18.32 22 -19 22 C-18.53665986 15.39740297 -17.33453218 10.3803362 -12.578125 5.55859375 C-4.42987258 -1.47662419 -4.42987258 -1.47662419 0 0 Z " fill="#6E6B6D" transform="translate(225,147)"/>
<path d="M0 0 C2.75 0.8125 2.75 0.8125 5 2 C5 2.66 5 3.32 5 4 C7.31 4.33 9.62 4.66 12 5 C12.33 6.65 12.66 8.3 13 10 C14.670625 10.4021875 14.670625 10.4021875 16.375 10.8125 C20 12 20 12 22 15 C24.05003955 16.19232613 24.05003955 16.19232613 26 17 C25.67 17.66 25.34 18.32 25 19 C24.01 19 23.02 19 22 19 C19.66508361 19.32205743 17.33157492 19.65458149 15 20 C13.09439377 20 11.33654935 18.88384227 9.625 18.125 C8.83351563 17.77695313 8.04203125 17.42890625 7.2265625 17.0703125 C5 16 5 16 2 14 C2 12.68 2 11.36 2 10 C1.38125 9.773125 0.7625 9.54625 0.125 9.3125 C-2.61410209 7.62070165 -3.05024472 6.00755839 -4 3 C-2.3125 1.375 -2.3125 1.375 0 0 Z " fill="#171447" transform="translate(361,164)"/>
<path d="M0 0 C0 1.32 0 2.64 0 4 C0.66 4 1.32 4 2 4 C2 4.99 2 5.98 2 7 C0.02 7.99 0.02 7.99 -2 9 C-1.67 9.99 -1.34 10.98 -1 12 C-1.639375 12.103125 -2.27875 12.20625 -2.9375 12.3125 C-3.618125 12.539375 -4.29875 12.76625 -5 13 C-5.33 13.99 -5.66 14.98 -6 16 C-7.33333333 16.66666667 -8.66666667 17.33333333 -10 18 C-10.33 18.99 -10.66 19.98 -11 21 C-11.66 20.67 -12.32 20.34 -13 20 C-13 18.68 -13 17.36 -13 16 C-14.32 16.33 -15.64 16.66 -17 17 C-16.67 16.34 -16.34 15.68 -16 15 C-15.34 15 -14.68 15 -14 15 C-14.33 14.34 -14.66 13.68 -15 13 C-16.98 13.99 -16.98 13.99 -19 15 C-15.59742765 4.00707395 -15.59742765 4.00707395 -11.125 1.1875 C-4.26168224 -1.42056075 -4.26168224 -1.42056075 0 0 Z " fill="#1A164C" transform="translate(214,132)"/>
<path d="M0 0 C0.66 0.99 1.32 1.98 2 3 C0.625 6.6875 0.625 6.6875 -1 10 C-0.34 10.33 0.32 10.66 1 11 C1 11.99 1 12.98 1 14 C-10.0480425 18.91301213 -20.86452325 21.656629 -33 21 C-32.505 19.515 -32.505 19.515 -32 18 C-29.52348608 17.2889814 -27.14527274 16.74183712 -24.625 16.25 C-15.51326339 14.21421546 -7.48506791 10.84652375 -1.8125 3.0625 C-1.214375 2.051875 -0.61625 1.04125 0 0 Z " fill="#2A254B" transform="translate(402,247)"/>
<path d="M0 0 C5.26662748 3.40575244 10.30318983 6.83691826 15 11 C15.928125 11.804375 16.85625 12.60875 17.8125 13.4375 C20.31150951 16.36491115 20.73563583 18.21078026 21 22 C20.01 22 19.02 22 18 22 C17.67 22.66 17.34 23.32 17 24 C16.443125 23.34 15.88625 22.68 15.3125 22 C13.15937692 19.74507789 13.15937692 19.74507789 10.25 19.75 C9.13625 19.87375 9.13625 19.87375 8 20 C8.66 20.66 9.32 21.32 10 22 C10 22.99 10 23.98 10 25 C8.0625 24.1875 8.0625 24.1875 6 23 C5.67 22.01 5.34 21.02 5 20 C3.67661368 19.31379969 2.34050052 18.65213539 1 18 C-1.06722076 16.40283189 -3.02157854 14.70863672 -5 13 C-4.34 12.67 -3.68 12.34 -3 12 C-1.65812182 12.6492959 -0.32520503 13.31731862 1 14 C1.99 14 2.98 14 4 14 C4.33 13.67 4.66 13.34 5 13 C6.67542976 13.28604898 8.34385343 13.61781233 10 14 C10.33 13.34 10.66 12.68 11 12 C11.66 12 12.32 12 13 12 C12.195625 11.731875 11.39125 11.46375 10.5625 11.1875 C9.716875 10.795625 8.87125 10.40375 8 10 C7.67 9.01 7.34 8.02 7 7 C3.99152582 5.77479736 3.99152582 5.77479736 1 5 C0.67 3.35 0.34 1.7 0 0 Z " fill="#2A2754" transform="translate(373,169)"/>
<path d="M0 0 C0 0.33 0 0.66 0 1 C-1.65 1 -3.3 1 -5 1 C-5.66 2.98 -6.32 4.96 -7 7 C-7.33 7 -7.66 7 -8 7 C-8.09796875 7.98742187 -8.1959375 8.97484375 -8.296875 9.9921875 C-8.44640625 11.27351562 -8.5959375 12.55484375 -8.75 13.875 C-8.88921875 15.15117187 -9.0284375 16.42734375 -9.171875 17.7421875 C-10 21 -10 21 -11.953125 22.4453125 C-14 23 -14 23 -16 23 C-16.66 23.66 -17.32 24.32 -18 25 C-18.33 23.35 -18.66 21.7 -19 20 C-19.33 20.66 -19.66 21.32 -20 22 C-20.66 22 -21.32 22 -22 22 C-21.68991116 20.39536551 -21.37683713 18.79130769 -21.0625 17.1875 C-20.80146484 15.84751953 -20.80146484 15.84751953 -20.53515625 14.48046875 C-20 12 -20 12 -19 9 C-17.26705678 8.28066508 -15.53212448 7.56514222 -13.78125 6.890625 C-11.09312105 5.54656053 -9.71226774 3.4098583 -8 1 C-5.29120665 -0.35439668 -2.99066732 -0.06501451 0 0 Z " fill="#17134B" transform="translate(317,202)"/>
<path d="M0 0 C1.65 0 3.3 0 5 0 C5 0.66 5 1.32 5 2 C7.64 2.66 10.28 3.32 13 4 C12 7 12 7 10 9 C10.33 9.99 10.66 10.98 11 12 C7.98968256 12.93423645 7.13349732 13.04449911 4 12 C3.34 11.34 2.68 10.68 2 10 C-0.57061311 9.35232207 -0.57061311 9.35232207 -3 9 C-3 8.34 -3 7.68 -3 7 C-3.84304688 6.95101562 -4.68609375 6.90203125 -5.5546875 6.8515625 C-7.19824219 6.73941406 -7.19824219 6.73941406 -8.875 6.625 C-9.96554687 6.55539063 -11.05609375 6.48578125 -12.1796875 6.4140625 C-15 6 -15 6 -17 4 C-13.24142629 3.22597091 -9.47373749 2.56160508 -5.6875 1.9375 C-4.08455078 1.67259766 -4.08455078 1.67259766 -2.44921875 1.40234375 C-1.23685547 1.20318359 -1.23685547 1.20318359 0 1 C0 0.67 0 0.34 0 0 Z " fill="#151046" transform="translate(305,136)"/>
<path d="M0 0 C0.99 0.33 1.98 0.66 3 1 C3.84375 2.92578125 3.84375 2.92578125 4.5 5.3125 C5.46898622 8.80200393 6.40052739 11.41185407 9 14 C11.94515652 14.91343896 11.94515652 14.91343896 15.1875 15.25 C16.27417969 15.39953125 17.36085938 15.5490625 18.48046875 15.703125 C19.31191406 15.80109375 20.14335937 15.8990625 21 16 C21 16.33 21 16.66 21 17 C20.16855469 16.98839844 19.33710938 16.97679687 18.48046875 16.96484375 C16.85044922 16.95130859 16.85044922 16.95130859 15.1875 16.9375 C14.10855469 16.92589844 13.02960938 16.91429687 11.91796875 16.90234375 C8.93487831 16.86375234 8.93487831 16.86375234 6 18 C5.34 17.67 4.68 17.34 4 17 C3.67 18.32 3.34 19.64 3 21 C3.99 21.33 4.98 21.66 6 22 C0.25 21.125 0.25 21.125 -2 20 C-3.26621664 16.20135008 -2.93953998 12.80406168 -2.6875 8.875 C-2.65205078 8.13378906 -2.61660156 7.39257812 -2.58007812 6.62890625 C-2.46477495 4.74619477 -2.24065411 2.87082414 -2 1 C-1.34 0.67 -0.68 0.34 0 0 Z " fill="#161047" transform="translate(296,262)"/>
<path d="M0 0 C0 0.33 0 0.66 0 1 C-0.98742187 1.12117187 -1.97484375 1.24234375 -2.9921875 1.3671875 C-4.91417969 1.61855469 -4.91417969 1.61855469 -6.875 1.875 C-8.78925781 2.11863281 -8.78925781 2.11863281 -10.7421875 2.3671875 C-14.07164227 2.69877473 -14.07164227 2.69877473 -16 5 C-13.525 5.495 -13.525 5.495 -11 6 C-11 5.34 -11 4.68 -11 4 C-8.525 4.495 -8.525 4.495 -6 5 C-6 5.66 -6 6.32 -6 7 C-5.34 7 -4.68 7 -4 7 C-4 7.66 -4 8.32 -4 9 C-4.56976563 8.84144531 -5.13953125 8.68289062 -5.7265625 8.51953125 C-10.96079671 7.32339182 -15.51932503 7.45448817 -20.5625 9.3125 C-23.46333241 12.51085368 -23.35880813 13.55630443 -23.375 17.75 C-23.27869612 19.50181351 -23.16264275 21.25309636 -23 23 C-23.99 23 -24.98 23 -26 23 C-25.91299202 20.56077639 -25.80613998 18.12521586 -25.6875 15.6875 C-25.65366211 14.65206055 -25.65366211 14.65206055 -25.61914062 13.59570312 C-25.34375102 8.41337148 -25.34375102 8.41337148 -23.45703125 6.14453125 C-22.73580078 5.57798828 -22.73580078 5.57798828 -22 5 C-22 4.34 -22 3.68 -22 3 C-22.7425 3.763125 -23.485 4.52625 -24.25 5.3125 C-30.06976744 11 -30.06976744 11 -34 11 C-31.05346234 4.42695445 -26.46976641 2.5051671 -20 0 C-13.44988769 -1.91710604 -6.62533674 -1.10422279 0 0 Z " fill="#272251" transform="translate(333,200)"/>
<path d="M0 0 C4.74928696 1.61991183 8.62318692 4.2169854 12.75 7 C13.43449219 7.45117188 14.11898438 7.90234375 14.82421875 8.3671875 C19.87327939 11.74655878 19.87327939 11.74655878 21 14 C18.03 13.505 18.03 13.505 15 13 C15 12.34 15 11.68 15 11 C12.08517222 10.19032562 10.53886783 9.78154007 7.6875 10.9375 C7.130625 11.288125 6.57375 11.63875 6 12 C8.37629089 16.14670039 8.37629089 16.14670039 12 19 C12 19.99 12 20.98 12 22 C8.22211794 20.64401019 5.24252141 18.91839446 2 16.5625 C-1.25512015 14.20762402 -4.52960143 12.02646488 -8 10 C-6.4375 9.25 -6.4375 9.25 -4 9 C-1.49713591 10.13084437 0.67007722 11.52139516 3 13 C4.4606285 10.35261084 5 9.10551666 5 6 C3.02 5.01 1.04 4.02 -1 3 C-0.67 2.01 -0.34 1.02 0 0 Z " fill="#2F2C56" transform="translate(351,155)"/>
<path d="M0 0 C0.12375 0.556875 0.2475 1.11375 0.375 1.6875 C1.05976855 4.22114364 1.99133763 6.57921032 3 9 C1.68 9.33 0.36 9.66 -1 10 C-1.12375 11.093125 -1.2475 12.18625 -1.375 13.3125 C-2 17 -2 17 -4 20 C-0.04 20 3.92 20 8 20 C8 20.99 8 21.98 8 23 C0.41 23 -7.18 23 -15 23 C-15 22.01 -15 21.02 -15 20 C-13.96875 19.7525 -12.9375 19.505 -11.875 19.25 C-6.05098595 16.81643632 -4.29034193 10.45994826 -2 5 C-1.325955 3.33630365 -0.65655683 1.67067512 0 0 Z " fill="#494263" transform="translate(240,218)"/>
<path d="M0 0 C0.33 0 0.66 0 1 0 C1.25523437 1.46759766 1.25523437 1.46759766 1.515625 2.96484375 C3.18501604 12.15294677 5.54678032 19.81073525 10.25 27.9375 C12 31 12 31 12 33 C11.01 33 10.02 33 9 33 C7.22339288 30.91022823 5.67186688 28.87601177 4.125 26.625 C3.46008545 25.67403442 3.46008545 25.67403442 2.78173828 24.70385742 C-6 11.91853725 -6 11.91853725 -6 6 C-5.34 6 -4.68 6 -4 6 C-3.67 6.66 -3.34 7.32 -3 8 C-2.34 8 -1.68 8 -1 8 C-0.67 8 -0.34 8 0 8 C0 5.36 0 2.72 0 0 Z " fill="#433E5F" transform="translate(200,163)"/>
<path d="M0 0 C1.32 0 2.64 0 4 0 C4 0.99 4 1.98 4 3 C5.98 3.99 7.96 4.98 10 6 C10 9.20395416 9.25664978 11.09399739 8 14 C7.49210937 13.73445312 6.98421875 13.46890625 6.4609375 13.1953125 C3.18027096 11.51197424 0.07758237 10.02539059 -3.4375 8.875 C-6 8 -6 8 -7 6 C-6.67 5.34 -6.34 4.68 -6 4 C-3.4375 3.375 -3.4375 3.375 -1 3 C-0.67 2.01 -0.34 1.02 0 0 Z " fill="#161248" transform="translate(347,155)"/>
<path d="M0 0 C1.98 0.66 3.96 1.32 6 2 C6 3.98 6 5.96 6 8 C7.32 8 8.64 8 10 8 C10 8.66 10 9.32 10 10 C10.99 10.33 11.98 10.66 13 11 C9.98082379 13.01278414 8.95409238 13.29192943 5.5 13.5625 C2.72110398 13.78944318 0.67744737 14.10751754 -2 15 C-3.24703266 11.25890201 -2.45460854 10.55570977 -1 7 C-0.6186926 4.67402489 -0.27539746 2.34087842 0 0 Z " fill="#161146" transform="translate(249,199)"/>
<path d="M0 0 C3.75730247 1.6281644 6.616823 4.01401917 9.75 6.625 C11.22726562 7.85089844 11.22726562 7.85089844 12.734375 9.1015625 C13.48203125 9.72804687 14.2296875 10.35453125 15 11 C13.68 11.33 12.36 11.66 11 12 C10.34 10.68 9.68 9.36 9 8 C6.12586875 7.66602213 6.12586875 7.66602213 3 8 C1.15684329 9.9004467 1.15684329 9.9004467 0 12 C-0.33 12 -0.66 12 -1 12 C-1.33 12.66 -1.66 13.32 -2 14 C-3.0209375 13.1646875 -3.0209375 13.1646875 -4.0625 12.3125 C-7.30474269 9.76009618 -10.62918473 7.37939901 -14 5 C-13.01 4.34 -12.02 3.68 -11 3 C-10.3503125 3.7115625 -10.3503125 3.7115625 -9.6875 4.4375 C-7.97690387 6.23686957 -7.97690387 6.23686957 -5 7 C-5 6.34 -5 5.68 -5 5 C-3.35 5 -1.7 5 0 5 C0 3.35 0 1.7 0 0 Z " fill="#6F6D70" transform="translate(358,180)"/>
<path d="M0 0 C0.99 0.66 1.98 1.32 3 2 C3.25660094 5.07921132 3.39431504 7.21136993 2 10 C-0.32156597 10.40729228 -2.6568787 10.74438677 -5 11 C-5.33 10.01 -5.66 9.02 -6 8 C-6.5775 8.825 -7.155 9.65 -7.75 10.5 C-8.4925 11.325 -9.235 12.15 -10 13 C-11.32 13 -12.64 13 -14 13 C-14.99 13.495 -14.99 13.495 -16 14 C-14.7874262 10.27566618 -13.49140021 6.62197194 -12 3 C-11.34 3.33 -10.68 3.66 -10 4 C-7.90178785 3.60061233 -7.90178785 3.60061233 -6 3 C-6 3.66 -6 4.32 -6 5 C-4.35 5 -2.7 5 -1 5 C-0.67 3.35 -0.34 1.7 0 0 Z " fill="#161046" transform="translate(271,172)"/>
<path d="M0 0 C1.6510403 0.39553053 3.2958515 0.81713897 4.9375 1.25 C5.85402344 1.48203125 6.77054687 1.7140625 7.71484375 1.953125 C10 3 10 3 10.87890625 4.984375 C11 7 11 7 10 9 C9.34 9 8.68 9 8 9 C7.34 10.32 6.68 11.64 6 13 C4.35 13 2.7 13 1 13 C0.34 11.35 -0.32 9.7 -1 8 C-1.66 8 -2.32 8 -3 8 C-2.690625 7.236875 -2.38125 6.47375 -2.0625 5.6875 C-1.32106407 3.81210323 -0.63771783 1.91315348 0 0 Z " fill="#6D6B6C" transform="translate(313,156)"/>
<path d="M0 0 C5.56890517 0.47986031 10.67067568 1.29915181 16 3 C14.625 4.5 14.625 4.5 13 6 C12.34 6 11.68 6 11 6 C10.67 6.66 10.34 7.32 10 8 C9.01 7.67 8.02 7.34 7 7 C7 8.98 7 10.96 7 13 C3.7 12.67 0.4 12.34 -3 12 C-1.68 10.35 -0.36 8.7 1 7 C0.01 6.01 -0.98 5.02 -2 4 C-0.68 3.67 0.64 3.34 2 3 C1.34 2.01 0.68 1.02 0 0 Z " fill="#767377" transform="translate(272,144)"/>
<path d="M0 0 C0.33 0.66 0.66 1.32 1 2 C0.67 2.99 0.34 3.98 0 5 C1.32 5 2.64 5 4 5 C4.33 5.99 4.66 6.98 5 8 C5.66 7.01 6.32 6.02 7 5 C6.44894091 8.9492568 5.61064629 12.34920174 4 16 C3.67 14.68 3.34 13.36 3 12 C1.35 11.67 -0.3 11.34 -2 11 C-2.268125 12.155 -2.53625 13.31 -2.8125 14.5 C-3.88385122 18.81623514 -5.37472237 22.86292967 -7 27 C-7.66 27 -8.32 27 -9 27 C-9.66 27.66 -10.32 28.32 -11 29 C-9.73930487 23.42505431 -7.50844135 18.1507257 -5.5 12.8125 C-5.08363281 11.69423828 -4.66726562 10.57597656 -4.23828125 9.42382812 C-3.83996094 8.36228516 -3.44164062 7.30074219 -3.03125 6.20703125 C-2.66580078 5.2322583 -2.30035156 4.25748535 -1.92382812 3.25317383 C-1 1 -1 1 0 0 Z " fill="#3D375F" transform="translate(252,189)"/>
<path d="M0 0 C1.65 0.99 3.3 1.98 5 3 C4.67 3.66 4.34 4.32 4 5 C3.34 4.67 2.68 4.34 2 4 C2 6.64 2 9.28 2 12 C1.01 11.34 0.02 10.68 -1 10 C-1.33 10.66 -1.66 11.32 -2 12 C-4.9719385 10.87548273 -7.33440687 9.77706209 -10 8 C-11.125 5.5 -11.125 5.5 -12 3 C-12.33 2.34 -12.66 1.68 -13 1 C-9.6875 0.75 -9.6875 0.75 -6 1 C-4.0625 3 -4.0625 3 -3 5 C-2.01 4.34 -1.02 3.68 0 3 C0 2.01 0 1.02 0 0 Z " fill="#292756" transform="translate(393,187)"/>
<path d="M0 0 C0.99 0.66 1.98 1.32 3 2 C2.773125 2.7425 2.54625 3.485 2.3125 4.25 C1.69741574 7.04797157 1.69741574 7.04797157 3.4375 9.1875 C3.953125 9.785625 4.46875 10.38375 5 11 C5 11.66 5 12.32 5 13 C4.34 13 3.68 13 3 13 C2.67 13.66 2.34 14.32 2 15 C1.34 15 0.68 15 0 15 C0.66 18.3 1.32 21.6 2 25 C-0.980295 22.019705 -2.20105722 19.74779745 -4 16 C-4.98387706 14.32376502 -5.97862543 12.65365406 -7 11 C-6.34 11 -5.68 11 -5 11 C-4.67 11.33 -4.34 11.66 -4 12 C-4 11.34 -4 10.68 -4 10 C-3.34 10 -2.68 10 -2 10 C-2.33 8.35 -2.66 6.7 -3 5 C-2.34 4.67 -1.68 4.34 -1 4 C-0.34786708 1.97536745 -0.34786708 1.97536745 0 0 Z " fill="#777576" transform="translate(380,199)"/>
<path d="M0 0 C0.66 0.33 1.32 0.66 2 1 C2 1.66 2 2.32 2 3 C1.01 3.495 1.01 3.495 0 4 C0.33 5.32 0.66 6.64 1 8 C-6.47941368 9.94210433 -13.25847464 11.39363688 -21 11 C-21 10.34 -21 9.68 -21 9 C-20.154375 8.76925781 -19.30875 8.53851563 -18.4375 8.30078125 C-10.53203337 6.02984327 -10.53203337 6.02984327 -3.3125 2.1875 C-2.219375 1.465625 -1.12625 0.74375 0 0 Z " fill="#7D777A" transform="translate(374,255)"/>
<path d="M0 0 C2.31 0 4.62 0 7 0 C7.6875 2.8125 7.6875 2.8125 8 6 C6.84375 7.6875 6.84375 7.6875 5 9 C2.51953125 9.29296875 2.51953125 9.29296875 -0.1875 9.1875 C-1.08855469 9.16042969 -1.98960937 9.13335937 -2.91796875 9.10546875 C-3.60503906 9.07066406 -4.29210937 9.03585938 -5 9 C-5 7.02 -5 5.04 -5 3 C-3.35 2.34 -1.7 1.68 0 1 C0 0.67 0 0.34 0 0 Z " fill="#656365" transform="translate(284,148)"/>
<path d="M0 0 C0.68707555 2.49064888 1 4.37886292 1 7 C0.01 7.66 -0.98 8.32 -2 9 C-2.433125 9.495 -2.86625 9.99 -3.3125 10.5 C-5.62313046 12.55389374 -8.0627862 13.15147157 -11 14 C-11 13.34 -11 12.68 -11 12 C-11.66 11.67 -12.32 11.34 -13 11 C-10.18810908 6.52490551 -8.28481177 3.52981393 -3 2 C-2.01 1.34 -1.02 0.68 0 0 Z " fill="#605D61" transform="translate(386,248)"/>
<path d="M0 0 C0.66 0.33 1.32 0.66 2 1 C1.52433594 1.76570313 1.52433594 1.76570313 1.0390625 2.546875 C-0.33976273 5.80214659 -0.4293573 8.72843132 -0.625 12.25 C-0.69976562 13.51328125 -0.77453125 14.7765625 -0.8515625 16.078125 C-0.90054687 17.04234375 -0.94953125 18.0065625 -1 19 C-0.566875 18.505 -0.13375 18.01 0.3125 17.5 C2 16 2 16 5 16 C5.66 14.68 6.32 13.36 7 12 C7.639375 12.474375 8.27875 12.94875 8.9375 13.4375 C12.92181519 15.47031387 16.58494074 15.7210529 21 16 C21 16.33 21 16.66 21 17 C20.16855469 16.98839844 19.33710938 16.97679687 18.48046875 16.96484375 C16.85044922 16.95130859 16.85044922 16.95130859 15.1875 16.9375 C14.10855469 16.92589844 13.02960938 16.91429687 11.91796875 16.90234375 C8.93487831 16.86375234 8.93487831 16.86375234 6 18 C5.34 17.67 4.68 17.34 4 17 C3.67 18.32 3.34 19.64 3 21 C3.99 21.33 4.98 21.66 6 22 C0.25 21.125 0.25 21.125 -2 20 C-3.26621664 16.20135008 -2.93953998 12.80406168 -2.6875 8.875 C-2.65205078 8.13378906 -2.61660156 7.39257812 -2.58007812 6.62890625 C-2.46477495 4.74619477 -2.24065411 2.87082414 -2 1 C-1.34 0.67 -0.68 0.34 0 0 Z " fill="#807C94" transform="translate(296,262)"/>
<path d="M0 0 C0 0.66 0 1.32 0 2 C1.98 2 3.96 2 6 2 C6.33 2.99 6.66 3.98 7 5 C8.175625 4.9175 9.35125 4.835 10.5625 4.75 C15.36548011 4.71575415 18.05599047 6.37066032 22 9 C22 9.66 22 10.32 22 11 C23.32 11.33 24.64 11.66 26 12 C24 13 24 13 21.54492188 12.24316406 C20.52978516 11.83807617 19.51464844 11.43298828 18.46875 11.015625 C17.34726562 10.57476562 16.22578125 10.13390625 15.0703125 9.6796875 C13.89210938 9.20789063 12.71390625 8.73609375 11.5 8.25 C3.74317827 5.16470237 -3.94564353 2.21793282 -12 0 C-12 -0.33 -12 -0.66 -12 -1 C-7.48281619 -2.36884358 -4.41225737 -1.47075246 0 0 Z " fill="#4D4B6E" transform="translate(302,143)"/>
<path d="M0 0 C1.0625 1.875 1.0625 1.875 2 4 C1.67 4.66 1.34 5.32 1 6 C1.99 6 2.98 6 4 6 C3.71848084 8.12636813 3.42446737 10.25108528 3.125 12.375 C2.96257812 13.55835938 2.80015625 14.74171875 2.6328125 15.9609375 C2 19 2 19 0 21 C-0.66 19.35 -1.32 17.7 -2 16 C-2.66 16 -3.32 16 -4 16 C-3.71653722 14.08210287 -3.4228972 12.16570817 -3.125 10.25 C-2.88136719 8.64898437 -2.88136719 8.64898437 -2.6328125 7.015625 C-2.06776118 4.32291129 -1.36577086 2.36427561 0 0 Z " fill="#150F43" transform="translate(256,178)"/>
<path d="M0 0 C2.66666667 1.33333333 5.33333333 2.66666667 8 4 C8.33 2.68 8.66 1.36 9 0 C10.77706209 2.66559313 11.87548273 5.0280615 13 8 C13.99 8 14.98 8 16 8 C14.66666667 10.66666667 13.33333333 13.33333333 12 16 C8 10.66666667 4 5.33333333 0 0 Z " fill="#242050" transform="translate(383,195)"/>
<path d="M0 0 C6.27 0 12.54 0 19 0 C17 4 17 4 13.75 5.25 C10.36234331 5.92753134 7.43801441 6.16770802 4 6 C4.66 5.34 5.32 4.68 6 4 C5.34 3.67 4.68 3.34 4 3 C4 2.34 4 1.68 4 1 C2.68 0.67 1.36 0.34 0 0 Z " fill="#7A7192" transform="translate(255,206)"/>
<path d="M0 0 C0.33 0 0.66 0 1 0 C1.55318518 8.57437024 -0.27547041 14.99333884 -5.125 22.125 C-5.74375 22.74375 -6.3625 23.3625 -7 24 C-7.66 24 -8.32 24 -9 24 C-9 24.66 -9 25.32 -9 26 C-10.65 26.66 -12.3 27.32 -14 28 C-14 27.01 -14 26.02 -14 25 C-12.68 25 -11.36 25 -10 25 C-10 24.01 -10 23.02 -10 22 C-10.66 21.67 -11.32 21.34 -12 21 C-11.01 20.67 -10.02 20.34 -9 20 C-8.67 20.33 -8.34 20.66 -8 21 C-7.34 20.01 -6.68 19.02 -6 18 C-5.34 18 -4.68 18 -4 18 C-3.896875 16.88625 -3.79375 15.7725 -3.6875 14.625 C-3.070803 9.56445698 -1.57493852 4.83377357 0 0 Z " fill="#868386" transform="translate(397,230)"/>
<path d="M0 0 C2.76742219 0.3496315 3.76014381 0.69601773 5.51953125 2.92578125 C5.94621094 3.71339844 6.37289063 4.50101563 6.8125 5.3125 C7.25207031 6.09238281 7.69164062 6.87226563 8.14453125 7.67578125 C9.10863264 10.29514348 8.9599526 11.42638476 8 14 C3.125 10.375 3.125 10.375 2 7 C1.01 7.33 0.02 7.66 -1 8 C-1.125 2.25 -1.125 2.25 0 0 Z " fill="#2D2752" transform="translate(265,156)"/>
<path d="M0 0 C0.33 0 0.66 0 1 0 C1 2.97 1 5.94 1 9 C0.34 9 -0.32 9 -1 9 C-0.67 13.29 -0.34 17.58 0 22 C-2 19 -2 19 -2 17 C-2.66 17 -3.32 17 -4 17 C-5.25664978 14.09399739 -6 12.20395416 -6 9 C-5.01 9 -4.02 9 -3 9 C-2.87625 7.88625 -2.7525 6.7725 -2.625 5.625 C-2 2 -2 2 0 0 Z " fill="#1A1843" transform="translate(201,154)"/>
<path d="M0 0 C1.12857422 0.04382813 2.25714844 0.08765625 3.41992188 0.1328125 C4.59490234 0.184375 5.76988281 0.2359375 6.98046875 0.2890625 C8.72553711 0.35480469 8.72553711 0.35480469 10.50585938 0.421875 C16.12365527 0.65208633 21.62445038 0.95912065 27.16796875 1.9140625 C27.16796875 2.2440625 27.16796875 2.5740625 27.16796875 2.9140625 C14.29796875 2.9140625 1.42796875 2.9140625 -11.83203125 2.9140625 C-8.33065113 -0.58731762 -4.76555223 -0.18976701 0 0 Z " fill="#928E92" transform="translate(241.83203125,152.0859375)"/>
<path d="M0 0 C2.0625 0.4375 2.0625 0.4375 4 1 C4 2.98 4 4.96 4 7 C3.01 7.495 3.01 7.495 2 8 C2 9.32 2 10.64 2 12 C1.34 12 0.68 12 0 12 C0.33 13.32 0.66 14.64 1 16 C0.34 15.67 -0.32 15.34 -1 15 C-1 14.34 -1 13.68 -1 13 C-1.66 13 -2.32 13 -3 13 C-3.625 11.125 -3.625 11.125 -4 9 C-3.34 8.34 -2.68 7.68 -2 7 C-1.63371323 5.00577205 -1.29868656 3.00546689 -1 1 C-0.67 0.67 -0.34 0.34 0 0 Z " fill="#676464" transform="translate(376,197)"/>
<path d="M0 0 C4.60853797 0.72008406 8.67237409 2.31295939 13 4 C12.1875 6.9375 12.1875 6.9375 11 10 C10.01 10.33 9.02 10.66 8 11 C7.67 11.66 7.34 12.32 7 13 C6.01 11.35 5.02 9.7 4 8 C4.99 7.01 5.98 6.02 7 5 C6.67 4.34 6.34 3.68 6 3 C5.01 3.33 4.02 3.66 3 4 C0.8125 3.0625 0.8125 3.0625 -1 2 C-0.67 1.34 -0.34 0.68 0 0 Z " fill="#161249" transform="translate(310,136)"/>
<path d="M0 0 C0 0.66 0 1.32 0 2 C1.32 2 2.64 2 4 2 C3.67 2.66 3.34 3.32 3 4 C2.34 3.67 1.68 3.34 1 3 C1.33 4.65 1.66 6.3 2 8 C-0.66666667 8 -3.33333333 8 -6 8 C-6.33 5.69 -6.66 3.38 -7 1 C-3.375 -1.125 -3.375 -1.125 0 0 Z " fill="#616061" transform="translate(343,171)"/>
<path d="M0 0 C3 1 3 1 4.203125 2.890625 C7.05556985 9.31926936 7.05556985 9.31926936 6.75 13.0625 C6.5025 13.701875 6.255 14.34125 6 15 C4.68 15 3.36 15 2 15 C1.67 15.66 1.34 16.32 1 17 C0.01 16.01 -0.98 15.02 -2 14 C-1.34 12.68 -0.68 11.36 0 10 C1.32 10 2.64 10 4 10 C2.88145414 6.27385847 2.88145414 6.27385847 0 4 C0 2.68 0 1.36 0 0 Z " fill="#676668" transform="translate(381,202)"/>
<path d="M0 0 C2.31 0.33 4.62 0.66 7 1 C5.16962599 3.0337489 3.46484417 4.33738085 1.125 5.8125 C-3.81660235 9.27162164 -7.10921763 13.1557636 -9 19 C-9.33 19 -9.66 19 -10 19 C-10.125 12.375 -10.125 12.375 -9 9 C-7.35 8.67 -5.7 8.34 -4 8 C-3.67 6.35 -3.34 4.7 -3 3 C-2.01 3 -1.02 3 0 3 C0 2.01 0 1.02 0 0 Z " fill="#565474" transform="translate(212,140)"/>
<path d="M0 0 C2 2 2 2 3 5 C3.928125 4.690625 4.85625 4.38125 5.8125 4.0625 C7.875 3.375 9.9375 2.6875 12 2 C12.6875 3.8125 12.6875 3.8125 13 6 C11.75 7.75 11.75 7.75 10 9 C9.01 9 8.02 9 7 9 C6.67 8.34 6.34 7.68 6 7 C5.67 8.98 5.34 10.96 5 13 C2.26097751 10.63448058 1.06829908 8.45142779 0 5 C-0.125 2.1875 -0.125 2.1875 0 0 Z " fill="#130E43" transform="translate(297,220)"/>
<path d="M0 0 C0 0.66 0 1.32 0 2 C-0.66 2.66 -1.32 3.32 -2 4 C-2.69748583 5.31747324 -3.36959957 6.64914193 -4 8 C-4 7.34 -4 6.68 -4 6 C-4.66 6 -5.32 6 -6 6 C-6 5.34 -6 4.68 -6 4 C-7.65 3.67 -9.3 3.34 -11 3 C-11 3.66 -11 4.32 -11 5 C-12.98 5 -14.96 5 -17 5 C-16.5 3.0625 -16.5 3.0625 -15 1 C-9.97430769 -0.02217471 -5.11349606 -0.10653117 0 0 Z " fill="#171043" transform="translate(333,201)"/>
<path d="M0 0 C1.99788438 0.34578768 3.99759451 0.68143549 6 1 C1.15698724 3.69056265 -3.32778374 4.12858092 -8.8125 4.0625 C-10.27623047 4.04896484 -10.27623047 4.04896484 -11.76953125 4.03515625 C-12.87361328 4.01775391 -12.87361328 4.01775391 -14 4 C-13.67 3.01 -13.34 2.02 -13 1 C-11.07421875 0.234375 -11.07421875 0.234375 -8.6875 -0.25 C-7.90761719 -0.42015625 -7.12773437 -0.5903125 -6.32421875 -0.765625 C-3.88559715 -1.01153642 -2.32529786 -0.70852634 0 0 Z " fill="#817A88" transform="translate(383,264)"/>
<path d="M0 0 C1.87558594 0.14018555 1.87558594 0.14018555 3.7890625 0.28320312 C5.74199219 0.43885742 5.74199219 0.43885742 7.734375 0.59765625 C9.06505932 0.69915735 10.39578827 0.80007525 11.7265625 0.90039062 C14.97965163 1.14790828 18.23216482 1.40138573 21.484375 1.66015625 C21.484375 1.99015625 21.484375 2.32015625 21.484375 2.66015625 C20.370625 2.64855469 19.256875 2.63695312 18.109375 2.625 C7.85498397 2.55267456 -2.29131317 2.88009976 -12.515625 3.66015625 C-11.855625 3.33015625 -11.195625 3.00015625 -10.515625 2.66015625 C-10.515625 2.00015625 -10.515625 1.34015625 -10.515625 0.66015625 C-6.90376007 -0.52183817 -3.76458466 -0.29089972 0 0 Z " fill="#5D5B7A" transform="translate(242.515625,134.33984375)"/>
<path d="M0 0 C0 0.33 0 0.66 0 1 C-1.65 1 -3.3 1 -5 1 C-5.66 2.98 -6.32 4.96 -7 7 C-7.33 7 -7.66 7 -8 7 C-8.66 10.96 -9.32 14.92 -10 19 C-11.32 19.33 -12.64 19.66 -14 20 C-14 19.34 -14 18.68 -14 18 C-13.01 18 -12.02 18 -11 18 C-11.11859375 17.19175781 -11.2371875 16.38351563 -11.359375 15.55078125 C-12.42194846 6.74204729 -12.42194846 6.74204729 -10.1875 2.8125 C-6.64712364 -0.1209547 -4.54054243 -0.09870744 0 0 Z " fill="#14103F" transform="translate(317,202)"/>
<path d="M0 0 C6.2712405 5.92283825 10.74380001 12.61191904 13 21 C12.60546875 23.3046875 12.60546875 23.3046875 12 25 C11.61328125 24.20335937 11.2265625 23.40671875 10.828125 22.5859375 C7.65031031 15.92770829 7.65031031 15.92770829 3.75 9.6875 C1.65314731 6.46733338 0.89274122 3.71975508 0 0 Z " fill="#8A888B" transform="translate(384,204)"/>
<path d="M0 0 C0.99 0 1.98 0 3 0 C3 2.64 3 5.28 3 8 C0.03 8 -2.94 8 -6 8 C-6 7.01 -6 6.02 -6 5 C-5.34 4.67 -4.68 4.34 -4 4 C-4 3.01 -4 2.02 -4 1 C-2.68 1.33 -1.36 1.66 0 2 C0 1.34 0 0.68 0 0 Z " fill="#161143" transform="translate(241,231)"/>
<path d="M0 0 C1.24716797 0.00451172 2.49433594 0.00902344 3.77929688 0.01367188 C6.83208221 0.02536837 9.88476498 0.04175914 12.9375 0.0625 C12.9375 0.3925 12.9375 0.7225 12.9375 1.0625 C12.23254395 1.08755615 11.52758789 1.1126123 10.80126953 1.13842773 C7.55488553 1.25568042 4.30870183 1.3778115 1.0625 1.5 C-0.04609375 1.53931641 -1.1546875 1.57863281 -2.296875 1.61914062 C-7.47778065 1.81723408 -12.65207213 2.0537839 -17.8203125 2.47265625 C-18.61840332 2.53718994 -19.41649414 2.60172363 -20.23876953 2.66821289 C-20.84060059 2.79832764 -21.44243164 2.92844238 -22.0625 3.0625 C-22.3925 3.7225 -22.7225 4.3825 -23.0625 5.0625 C-25.7025 5.0625 -28.3425 5.0625 -31.0625 5.0625 C-30.0625 3.0625 -30.0625 3.0625 -27.0625 2 C-18.1680983 -0.28805666 -9.11414308 -0.06298982 0 0 Z " fill="#514E66" transform="translate(245.0625,122.9375)"/>
<path d="M0 0 C6.2054142 0.48320848 11.99945246 1.33318124 18 3 C18 3.33 18 3.66 18 4 C16.02 4 14.04 4 12 4 C12 4.66 12 5.32 12 6 C11.01 6 10.02 6 9 6 C9 5.34 9 4.68 9 4 C5.7 3.67 2.4 3.34 -1 3 C-0.67 2.01 -0.34 1.02 0 0 Z " fill="#332D4E" transform="translate(265,124)"/>
<path d="M0 0 C0.75 1.625 0.75 1.625 1 4 C-1.55770462 8.80848468 -4.77058805 11.73181804 -9 15 C-11 14 -11 14 -12 12 C-9.66785852 10.79371992 -7.50357861 9.8345262 -5 9 C-4.9175 8.21625 -4.835 7.4325 -4.75 6.625 C-4 4 -4 4 -1.9375 2.6875 C-1.298125 2.460625 -0.65875 2.23375 0 2 C0 1.34 0 0.68 0 0 Z " fill="#42405F" transform="translate(338,267)"/>
<path d="M0 0 C2.31 0 4.62 0 7 0 C8.97221735 3.82117111 9.06506583 4.87286989 8 9 C8.99 9.33 9.98 9.66 11 10 C10.01 10.495 10.01 10.495 9 11 C4.68142973 8.46518701 2.41020566 6.87161957 1 2 C0.67 1.34 0.34 0.68 0 0 Z " fill="#110E3F" transform="translate(380,188)"/>
<path d="M0 0 C5.15924464 4.40053219 8.13973101 9.89612699 11 16 C11 16.66 11 17.32 11 18 C10.34 18 9.68 18 9 18 C9 17.01 9 16.02 9 15 C8.01 14.67 7.02 14.34 6 14 C3.2332241 11.02827774 3 10.25809375 3 6 C1.68 6 0.36 6 -1 6 C-1 5.34 -1 4.68 -1 4 C-0.34 4 0.32 4 1 4 C0.67 2.68 0.34 1.36 0 0 Z " fill="#575274" transform="translate(405,200)"/>
<path d="M0 0 C3 0 3 0 6 1 C6.6875 3.0625 6.6875 3.0625 7 5 C1.25 8 1.25 8 -1 8 C-1 7.34 -1 6.68 -1 6 C-1.66 5.67 -2.32 5.34 -3 5 C-1.6875 2.5 -1.6875 2.5 0 0 Z " fill="#686468" transform="translate(376,254)"/>
<path d="M0 0 C1.90401138 1.90401138 2.93520439 3.33425686 3.19921875 6.046875 C3.1886578 8.03233273 3.09915043 10.0169914 3 12 C2.34 12 1.68 12 1 12 C0.67 12.99 0.34 13.98 0 15 C-1.65 15 -3.3 15 -5 15 C-4.360625 14.195625 -3.72125 13.39125 -3.0625 12.5625 C-0.40147674 8.64148693 -0.20593653 4.63357199 0 0 Z " fill="#413E5E" transform="translate(327,262)"/>
<path d="M0 0 C2.97 0.495 2.97 0.495 6 1 C5.34 1.66 4.68 2.32 4 3 C3.01 3 2.02 3 1 3 C1.33 4.32 1.66 5.64 2 7 C0.35 7.33 -1.3 7.66 -3 8 C-3.99 6.35 -4.98 4.7 -6 3 C-4.68 3 -3.36 3 -2 3 C-1.34 2.01 -0.68 1.02 0 0 Z " fill="#615E62" transform="translate(361,187)"/>
<path d="M0 0 C14.44759207 9.3427762 14.44759207 9.3427762 16 14 C15.34 14 14.68 14 14 14 C13 13 12 12 11 11 C10.01 10.67 9.02 10.34 8 10 C7.67 9.01 7.34 8.02 7 7 C3.99152582 5.77479736 3.99152582 5.77479736 1 5 C0.67 3.35 0.34 1.7 0 0 Z " fill="#69607F" transform="translate(373,169)"/>
<path d="M0 0 C-0.5775 0.226875 -1.155 0.45375 -1.75 0.6875 C-4.56913681 2.33199647 -6.01254869 4.4355467 -8 7 C-11 9 -11 9 -14 9 C-11.5013923 3.42618281 -6.57270411 -2.19090137 0 0 Z " fill="#4F4C6D" transform="translate(313,202)"/>
<path d="M0 0 C7 8.44827586 7 8.44827586 7 12 C6.01 12 5.02 12 4 12 C2.17578125 9.59375 2.17578125 9.59375 0.3125 6.5 C-0.62142578 4.96859375 -0.62142578 4.96859375 -1.57421875 3.40625 C-2.04472656 2.6121875 -2.51523438 1.818125 -3 1 C-2.01 0.67 -1.02 0.34 0 0 Z " fill="#5F5A69" transform="translate(205,184)"/>
<path d="M0 0 C0.99 0.33 1.98 0.66 3 1 C2.79375 1.556875 2.5875 2.11375 2.375 2.6875 C1.89304789 5.659538 2.73434972 7.31979941 4 10 C3.01 10.99 2.02 11.98 1 13 C-0.9078584 9.8250906 -1.1609041 7.89414789 -0.625 4.25 C-0.51414062 3.45078125 -0.40328125 2.6515625 -0.2890625 1.828125 C-0.19367188 1.22484375 -0.09828125 0.6215625 0 0 Z " fill="#151146" transform="translate(395,191)"/>
<path d="M0 0 C3.73584906 1.47169811 3.73584906 1.47169811 5 4 C5.66 4 6.32 4 7 4 C7.33 3.34 7.66 2.68 8 2 C8.99 4.97 9.98 7.94 11 11 C1.40546697 4.84965831 1.40546697 4.84965831 -2 1 C-1.34 0.67 -0.68 0.34 0 0 Z " fill="#7D7B7D" transform="translate(346,183)"/>
<path d="M0 0 C0.66 0.33 1.32 0.66 2 1 C1.875 3.3125 1.875 3.3125 1 6 C-1.9375 7.6875 -1.9375 7.6875 -5 9 C-5.66 9.66 -6.32 10.32 -7 11 C-7.33 10.01 -7.66 9.02 -8 8 C-6.85546875 6.2109375 -6.85546875 6.2109375 -5.1875 4.375 C-4.64480469 3.76398438 -4.10210937 3.15296875 -3.54296875 2.5234375 C-2 1 -2 1 0 0 Z " fill="#837F84" transform="translate(217,149)"/>
<path d="M0 0 C0.804375 0.474375 1.60875 0.94875 2.4375 1.4375 C6.66939929 3.29359618 10.43172078 3.70559978 15 4 C15 4.33 15 4.66 15 5 C14.16855469 4.98839844 13.33710938 4.97679687 12.48046875 4.96484375 C10.85044922 4.95130859 10.85044922 4.95130859 9.1875 4.9375 C7.56908203 4.92009766 7.56908203 4.92009766 5.91796875 4.90234375 C2.93487831 4.86375234 2.93487831 4.86375234 0 6 C-0.66 5.67 -1.32 5.34 -2 5 C-2 5.66 -2 6.32 -2 7 C-2.99 6.67 -3.98 6.34 -5 6 C-4.67 5.34 -4.34 4.68 -4 4 C-3.01 4 -2.02 4 -1 4 C-0.67 2.68 -0.34 1.36 0 0 Z " fill="#565175" transform="translate(302,274)"/>
<path d="M0 0 C2.66432819 2.66432819 2.53205122 4.25640979 3 8 C3.19142578 9.24330078 3.19142578 9.24330078 3.38671875 10.51171875 C3.50660156 11.39472656 3.62648438 12.27773437 3.75 13.1875 C3.86859375 14.02667969 3.9871875 14.86585938 4.109375 15.73046875 C4 18 4 18 1 21 C0.67 14.07 0.34 7.14 0 0 Z " fill="#120E35" transform="translate(404,224)"/>
<path d="M0 0 C5.43614072 2.7832093 9.93265026 5.40783094 14 10 C11.03 9.505 11.03 9.505 8 9 C8 8.34 8 7.68 8 7 C6.8553125 6.5978125 6.8553125 6.5978125 5.6875 6.1875 C3.11011382 5.04865495 1.73045136 4.18583329 0 2 C0 1.34 0 0.68 0 0 Z " fill="#433F64" transform="translate(358,159)"/>
<path d="M0 0 C0.99 0 1.98 0 3 0 C2.814375 0.78375 2.62875 1.5675 2.4375 2.375 C1.74037734 4.97089775 1.74037734 4.97089775 3 7 C2.01 7.495 2.01 7.495 1 8 C1.33 8.66 1.66 9.32 2 10 C-0.31 9.67 -2.62 9.34 -5 9 C-3.68 8.34 -2.36 7.68 -1 7 C-1.20625 6.21625 -1.4125 5.4325 -1.625 4.625 C-1.74875 3.75875 -1.8725 2.8925 -2 2 C-1.34 1.34 -0.68 0.68 0 0 Z " fill="#272357" transform="translate(288,132)"/>
<path d="M0 0 C1.65 0 3.3 0 5 0 C4.67 1.32 4.34 2.64 4 4 C8.95 4 13.9 4 19 4 C19 4.33 19 4.66 19 5 C16.2291017 5.02696009 13.4584655 5.04681952 10.6875 5.0625 C9.50897461 5.07506836 9.50897461 5.07506836 8.30664062 5.08789062 C7.54931641 5.09111328 6.79199219 5.09433594 6.01171875 5.09765625 C4.96697388 5.10551147 4.96697388 5.10551147 3.90112305 5.11352539 C2 5 2 5 -1 4 C-0.67 2.68 -0.34 1.36 0 0 Z " fill="#0F0938" transform="translate(300,279)"/>
<path d="M0 0 C5.06533667 -0.20674844 9.25400985 0.13882739 14 2 C15.4375 4.125 15.4375 4.125 16 6 C12.21760329 5.34309381 8.78158474 4.279869 5.1875 2.9375 C4.21167969 2.57527344 3.23585938 2.21304688 2.23046875 1.83984375 C1.49441406 1.56269531 0.75835937 1.28554687 0 1 C0 0.67 0 0.34 0 0 Z " fill="#888283" transform="translate(298,162)"/>
<path d="M0 0 C0 0.66 0 1.32 0 2 C1.65 2.33 3.3 2.66 5 3 C0.92151537 4.35949488 -2.17680945 3.14486103 -6.1875 2.0625 C-6.93708984 1.86720703 -7.68667969 1.67191406 -8.45898438 1.47070312 C-10.30793459 0.98785625 -12.15423776 0.49489367 -14 0 C-14 -0.33 -14 -0.66 -14 -1 C-9.04653013 -2.59789351 -4.86717585 -1.28306814 0 0 Z " fill="#8E878C" transform="translate(293,158)"/>
<path d="M0 0 C3.21043882 1.38188453 5.04936365 2.92421903 7.25 5.625 C8.03117187 6.57246094 8.03117187 6.57246094 8.828125 7.5390625 C9.40820312 8.26222656 9.40820312 8.26222656 10 9 C9.67 9.66 9.34 10.32 9 11 C7.125 10.3125 7.125 10.3125 5 9 C4.31246699 7.34183216 3.64438717 5.67540664 3 4 C2.01 3.67 1.02 3.34 0 3 C0 2.01 0 1.02 0 0 Z " fill="#5D5A78" transform="translate(327,238)"/>
<path d="M0 0 C0 0.33 0 0.66 0 1 C-13.6332574 2.33257403 -13.6332574 2.33257403 -20 1 C-20 0.67 -20 0.34 -20 0 C-13.26614928 -1.68346268 -6.75105368 -1.12517561 0 0 Z " fill="#8E8BA1" transform="translate(333,200)"/>
<path d="M0 0 C0.2475 0.639375 0.495 1.27875 0.75 1.9375 C1.81562433 4.18741541 1.81562433 4.18741541 4.125 4.75 C4.74375 4.8325 5.3625 4.915 6 5 C5.195625 5.268125 4.39125 5.53625 3.5625 5.8125 C2.716875 6.204375 1.87125 6.59625 1 7 C0.67 7.99 0.34 8.98 0 10 C-0.66 10 -1.32 10 -2 10 C-1.125 2.25 -1.125 2.25 0 0 Z " fill="#8A858B" transform="translate(208,159)"/>
<path d="M0 0 C0.66 0 1.32 0 2 0 C4.57502973 6.10531243 5.51916075 9.76839184 3 16 C2.67 16 2.34 16 2 16 C1.34 10.72 0.68 5.44 0 0 Z " fill="#827E80" transform="translate(382,224)"/>
<path d="M0 0 C2.125 0.9375 2.125 0.9375 4 2 C3.34515625 2.37769531 2.6903125 2.75539062 2.015625 3.14453125 C-0.26903428 4.85596306 -0.26903428 4.85596306 -0.390625 7.69921875 C-0.34421875 8.68535156 -0.2978125 9.67148438 -0.25 10.6875 C-0.21390625 11.68136719 -0.1778125 12.67523438 -0.140625 13.69921875 C-0.09421875 14.45847656 -0.0478125 15.21773437 0 16 C-0.99 16 -1.98 16 -3 16 C-2.88658509 13.51979503 -2.75985314 11.04155031 -2.625 8.5625 C-2.5940625 7.85544922 -2.563125 7.14839844 -2.53125 6.41992188 C-2.42719371 4.60760812 -2.22080108 2.80182012 -2 1 C-1.34 0.67 -0.68 0.34 0 0 Z " fill="#696382" transform="translate(310,207)"/>
<path d="M0 0 C0.66 0.33 1.32 0.66 2 1 C0.35 4.63 -1.3 8.26 -3 12 C-5 9 -5 9 -4.75 6.5 C-4 4 -4 4 -2 1 C-1.34 0.67 -0.68 0.34 0 0 Z " fill="#555072" transform="translate(263,182)"/>
<path d="M0 0 C0.66 0.66 1.32 1.32 2 2 C-1.06246747 3.78409802 -3.22079273 4.22880021 -6.75 4.125 C-7.54921875 4.10695313 -8.3484375 4.08890625 -9.171875 4.0703125 C-9.77515625 4.04710937 -10.3784375 4.02390625 -11 4 C-11 3.34 -11 2.68 -11 2 C-9.21128822 1.61114961 -7.41887126 1.23930804 -5.625 0.875 C-4.62726563 0.66617187 -3.62953125 0.45734375 -2.6015625 0.2421875 C-1.74304688 0.16226562 -0.88453125 0.08234375 0 0 Z " fill="#736D74" transform="translate(364,262)"/>
<path d="M0 0 C0.33 0 0.66 0 1 0 C1.21755666 5.4389165 1.10428384 9.87080814 -1 15 C-1.66 15 -2.32 15 -3 15 C-2.44854729 9.76119922 -1.57077907 5.02649303 0 0 Z " fill="#908B91" transform="translate(397,230)"/>
<path d="M0 0 C0.33 0 0.66 0 1 0 C1.48039005 2.37475834 1.95934474 4.74979155 2.4375 7.125 C2.57220703 7.79015625 2.70691406 8.4553125 2.84570312 9.140625 C3.63813727 13.08346807 4.36292755 17.02912121 5 21 C0.7320663 15.90601461 -0.12796308 12.92427082 -0.0625 6.3125 C-0.05347656 5.13300781 -0.04445312 3.95351562 -0.03515625 2.73828125 C-0.02355469 1.83464844 -0.01195312 0.93101562 0 0 Z " fill="#6D6888" transform="translate(200,163)"/>
<path d="M0 0 C3.63 0 7.26 0 11 0 C10.67 0.99 10.34 1.98 10 3 C2.25 3.125 2.25 3.125 0 2 C0 1.34 0 0.68 0 0 Z " fill="#24183D" transform="translate(262,207)"/>
<path d="M0 0 C3 1 3 1 3 1 Z M0 1 C0 1.99 0 2.98 0 4 C0.66 4 1.32 4 2 4 C1.67 4.99 1.34 5.98 1 7 C-0.65 7 -2.3 7 -4 7 C-4.33 5.68 -4.66 4.36 -5 3 C-2 1 -2 1 0 1 Z " fill="#676266" transform="translate(214,156)"/>
<path d="M0 0 C4.60853797 0.72008406 8.67237409 2.31295939 13 4 C12.360625 4.12375 11.72125 4.2475 11.0625 4.375 C10.381875 4.58125 9.70125 4.7875 9 5 C8.67 5.66 8.34 6.32 8 7 C7.34 5.68 6.68 4.36 6 3 C5.01 3.33 4.02 3.66 3 4 C0.8125 3.0625 0.8125 3.0625 -1 2 C-0.67 1.34 -0.34 0.68 0 0 Z " fill="#494665" transform="translate(310,136)"/>
<path d="M0 0 C0.33 0 0.66 0 1 0 C1.125 6.75 1.125 6.75 0 9 C-0.06950541 10.54023996 -0.08452357 12.08334988 -0.0625 13.625 C-0.05347656 14.44226563 -0.04445313 15.25953125 -0.03515625 16.1015625 C-0.02355469 16.72804688 -0.01195312 17.35453125 0 18 C-0.66 18 -1.32 18 -2 18 C-2.054138 15.75026553 -2.09285491 13.50015617 -2.125 11.25 C-2.14820313 9.99703125 -2.17140625 8.7440625 -2.1953125 7.453125 C-2.01537302 4.27179508 -1.68998582 2.63478104 0 0 Z " fill="#110937" transform="translate(297,263)"/>
<path d="M0 0 C1.48285242 0.95262034 2.96118201 1.91228405 4.4375 2.875 C5.67306641 3.67550781 5.67306641 3.67550781 6.93359375 4.4921875 C9 6 9 6 10 8 C8.35 8.33 6.7 8.66 5 9 C4.67 7.35 4.34 5.7 4 4 C3.01 4.33 2.02 4.66 1 5 C0.67 3.35 0.34 1.7 0 0 Z " fill="#524F6F" transform="translate(314,227)"/>
<path d="M0 0 C1.98 0.495 1.98 0.495 4 1 C4 2.65 4 4.3 4 6 C2.35 6.66 0.7 7.32 -1 8 C-1.125 2.25 -1.125 2.25 0 0 Z " fill="#3B3454" transform="translate(265,156)"/>
<path d="M0 0 C0.99 0.66 1.98 1.32 3 2 C3 2.99 3 3.98 3 5 C2.34 5 1.68 5 1 5 C1.33 6.32 1.66 7.64 2 9 C1.34 8.67 0.68 8.34 0 8 C0 7.34 0 6.68 0 6 C-0.66 6 -1.32 6 -2 6 C-2.33 4.68 -2.66 3.36 -3 2 C-2.01 1.34 -1.02 0.68 0 0 Z " fill="#5F5C5E" transform="translate(375,204)"/>
<path d="M0 0 C3.94139078 1.66751148 6.7892812 4.22710649 10 7 C8.68 7.33 7.36 7.66 6 8 C5.34 6.68 4.68 5.36 4 4 C2.35 4 0.7 4 -1 4 C-0.67 2.68 -0.34 1.36 0 0 Z " fill="#7F7D7F" transform="translate(363,184)"/>
<path d="M0 0 C0.66 0.33 1.32 0.66 2 1 C2 1.99 2 2.98 2 4 C2.99 4.33 3.98 4.66 5 5 C4.01 6.32 3.02 7.64 2 9 C1.01 8.67 0.02 8.34 -1 8 C-1 4.88742431 -0.82638376 2.89234315 0 0 Z " fill="#191444" transform="translate(402,251)"/>
<path d="M0 0 C0.99 0.33 1.98 0.66 3 1 C4.65049717 5.43028188 5.22973141 9.29050618 5 14 C4.67 14 4.34 14 4 14 C3.67 11.36 3.34 8.72 3 6 C2.34 6 1.68 6 1 6 C0.67 4.02 0.34 2.04 0 0 Z " fill="#403D58" transform="translate(414,218)"/>
<path d="M0 0 C0.99 0 1.98 0 3 0 C3.33 3.3 3.66 6.6 4 10 C3.01 10 2.02 10 1 10 C0.23590973 6.56159379 0 3.54439193 0 0 Z " fill="#1C133D" transform="translate(334,203)"/>
<path d="M0 0 C0.95465783 2.16967689 1.14401212 3.56328793 0.3984375 5.82421875 C-0.35870385 7.5684743 -1.17609198 9.28627131 -2 11 C-2.103125 10.360625 -2.20625 9.72125 -2.3125 9.0625 C-2.539375 8.381875 -2.76625 7.70125 -3 7 C-3.99 6.67 -4.98 6.34 -6 6 C-5.34 5.01 -4.68 4.02 -4 3 C-3.01 3 -2.02 3 -1 3 C-0.67 2.01 -0.34 1.02 0 0 Z " fill="#4C456B" transform="translate(258,194)"/>
<path d="M0 0 C0.66 0 1.32 0 2 0 C2 1.65 2 3.3 2 5 C0.375 5.6875 0.375 5.6875 -2 6 C-5.25 4.5625 -5.25 4.5625 -8 3 C-7.01 2.34 -6.02 1.68 -5 1 C-4.01 1.33 -3.02 1.66 -2 2 C-1.34 1.34 -0.68 0.68 0 0 Z " fill="#120E3D" transform="translate(332,151)"/>
<path d="M0 0 C0.33 0 0.66 0 1 0 C1.05416188 1.60379341 1.09286638 3.20811406 1.125 4.8125 C1.14820313 5.70582031 1.17140625 6.59914062 1.1953125 7.51953125 C1 10 1 10 -1 13 C-1.66 13 -2.32 13 -3 13 C-2.68991116 11.39536551 -2.37683713 9.79130769 -2.0625 8.1875 C-1.88847656 7.29417969 -1.71445312 6.40085938 -1.53515625 5.48046875 C-1 3 -1 3 0 0 Z " fill="#524C70" transform="translate(298,211)"/>
<path d="M0 0 C2.475 0.495 2.475 0.495 5 1 C5.25 7.625 5.25 7.625 3 11 C1.875 6.25 1.875 6.25 3 4 C2.34 4 1.68 4 1 4 C0.67 2.68 0.34 1.36 0 0 Z " fill="#110E3C" transform="translate(279,216)"/>
<path d="M0 0 C0.99 0.33 1.98 0.66 3 1 C2.67 2.32 2.34 3.64 2 5 C1.34 5 0.68 5 0 5 C-0.33 5.66 -0.66 6.32 -1 7 C-1.99 6.34 -2.98 5.68 -4 5 C-2.68 4.34 -1.36 3.68 0 3 C0 2.01 0 1.02 0 0 Z M-5 7 C-3.68 7.33 -2.36 7.66 -1 8 C-2.32 8.33 -3.64 8.66 -5 9 C-5 8.34 -5 7.68 -5 7 Z " fill="#605C5D" transform="translate(321,160)"/>
<path d="M0 0 C3.40320742 1.01176437 4.75725331 1.64843582 6.8125 4.625 C7.204375 5.40875 7.59625 6.1925 8 7 C4.22454612 5.90931332 1.52956528 5.0916909 -1 2 C-0.67 1.34 -0.34 0.68 0 0 Z " fill="#363157" transform="translate(351,155)"/>
<path d="M0 0 C0 0.66 0 1.32 0 2 C-1.43836751 1.88541307 -2.87570966 1.75790884 -4.3125 1.625 C-5.11300781 1.55539063 -5.91351563 1.48578125 -6.73828125 1.4140625 C-9 1 -9 1 -12 -1 C-7.48281619 -2.36884358 -4.41225737 -1.47075246 0 0 Z " fill="#4F4B69" transform="translate(302,143)"/>
<path d="M0 0 C1.17755859 -0.00773437 1.17755859 -0.00773437 2.37890625 -0.015625 C4.4375 0.25 4.4375 0.25 6.4375 2.25 C1.46686879 3.16297308 -2.59186879 3.16297308 -7.5625 2.25 C-4.42838698 0.16059132 -3.58799528 -0.02364412 0 0 Z " fill="#231D4B" transform="translate(324.5625,276.75)"/>
<path d="M0 0 C0.99 0.66 1.98 1.32 3 2 C2.37064741 4.93697877 1.67498244 7.48752634 0 10 C-2.625 11.25 -2.625 11.25 -5 12 C-4.360625 11.13375 -3.72125 10.2675 -3.0625 9.375 C-1.02451704 6.0401188 -0.36566907 3.83952522 0 0 Z " fill="#888688" transform="translate(383,240)"/>
<path d="M0 0 C1.65 0.33 3.3 0.66 5 1 C5 1.66 5 2.32 5 3 C5.66 3 6.32 3 7 3 C7 3.66 7 4.32 7 5 C2.71 4.34 -1.58 3.68 -6 3 C-6 2.67 -6 2.34 -6 2 C-4.02 2 -2.04 2 0 2 C0 1.34 0 0.68 0 0 Z " fill="#645C81" transform="translate(322,204)"/>
<path d="M0 0 C2.95183101 2.95183101 3.08663988 5.95511947 4 10 C2.68 10 1.36 10 0 10 C-1.231394 6.30581799 -0.64432764 3.7943739 0 0 Z " fill="#514D6C" transform="translate(282,189)"/>
<path d="M0 0 C1.98 0.495 1.98 0.495 4 1 C3.67 2.65 3.34 4.3 3 6 C1.68 5.67 0.36 5.34 -1 5 C-0.67 3.35 -0.34 1.7 0 0 Z " fill="#615E61" transform="translate(355,180)"/>
<path d="M0 0 C3.51716303 3.51716303 3.54676163 5.19567333 4 10 C3.01 9.67 2.02 9.34 1 9 C0.67 6.03 0.34 3.06 0 0 Z " fill="#544F6F" transform="translate(275,173)"/>
<path d="M0 0 C2.64 0.33 5.28 0.66 8 1 C8 1.99 8 2.98 8 4 C4.7 3.67 1.4 3.34 -2 3 C-1.34 2.01 -0.68 1.02 0 0 Z " fill="#857E81" transform="translate(271,153)"/>
<path d="M0 0 C0.33 0 0.66 0 1 0 C1.99 3.63 2.98 7.26 4 11 C3.01 11.33 2.02 11.66 1 12 C0 11 0 11 -0.09765625 8.49609375 C-0.08605469 7.48675781 -0.07445312 6.47742188 -0.0625 5.4375 C-0.05347656 4.42558594 -0.04445313 3.41367187 -0.03515625 2.37109375 C-0.02355469 1.58863281 -0.01195312 0.80617188 0 0 Z " fill="#504B70" transform="translate(298,263)"/>
<path d="M0 0 C0.66 1.32 1.32 2.64 2 4 C1.01 5.32 0.02 6.64 -1 8 C-0.34 8.33 0.32 8.66 1 9 C-0.98 9.99 -0.98 9.99 -3 11 C-2.53199289 6.94393835 -2.12046792 3.53411321 0 0 Z " fill="#6C6985" transform="translate(256,178)"/>
<path d="M0 0 C4.95 0.99 4.95 0.99 10 2 C10.33 3.32 10.66 4.64 11 6 C7.2089881 4.55049545 3.6125362 2.84827434 0 1 C0 0.67 0 0.34 0 0 Z " fill="#968F90" transform="translate(323,172)"/>
<path d="M0 0 C-3.26545761 1.88391785 -6.28111761 2.49287967 -10 3 C-10 2.01 -10 1.02 -10 0 C-6.7169902 -1.6415049 -3.57454967 -0.51888624 0 0 Z " fill="#817A7F" transform="translate(233,155)"/>
<path d="M0 0 C1.50433594 0.01353516 1.50433594 0.01353516 3.0390625 0.02734375 C3.80992187 0.03894531 4.58078125 0.05054688 5.375 0.0625 C2.11969192 1.74676809 -1.12970706 2.95036134 -4.625 4.0625 C-4.625 3.4025 -4.625 2.7425 -4.625 2.0625 C-5.615 1.7325 -6.605 1.4025 -7.625 1.0625 C-4.98041621 -0.25979189 -2.94738699 -0.03427194 0 0 Z " fill="#777378" transform="translate(232.625,143.9375)"/>
<path d="M0 0 C1.24546405 2.49092811 0.7767578 3.41080733 0 6 C-2.31 6 -4.62 6 -7 6 C-7 5.34 -7 4.68 -7 4 C-6.030625 3.525625 -5.06125 3.05125 -4.0625 2.5625 C-1.19522563 1.29806053 -1.19522563 1.29806053 0 0 Z " fill="#45415C" transform="translate(233,234)"/>
<path d="M0 0 C1.32 0 2.64 0 4 0 C4 1.65 4 3.3 4 5 C3.01 5.33 2.02 5.66 1 6 C-0.0625 4.125 -0.0625 4.125 -1 2 C-0.67 1.34 -0.34 0.68 0 0 Z " fill="#635B71" transform="translate(334,213)"/>
<path d="M0 0 C0.33 0.66 0.66 1.32 1 2 C0.67 2.99 0.34 3.98 0 5 C0.66 5 1.32 5 2 5 C1.34 6.32 0.68 7.64 0 9 C-0.99 8.67 -1.98 8.34 -3 8 C-1.125 1.125 -1.125 1.125 0 0 Z " fill="#4E466C" transform="translate(252,189)"/>
<path d="M0 0 C2.1875 -0.3125 2.1875 -0.3125 5 0 C7.8125 2.5 7.8125 2.5 10 5 C9.01 5.495 9.01 5.495 8 6 C6.0546875 5.0390625 6.0546875 5.0390625 3.875 3.625 C3.15054687 3.16351563 2.42609375 2.70203125 1.6796875 2.2265625 C1.12539063 1.82179687 0.57109375 1.41703125 0 1 C0 0.67 0 0.34 0 0 Z " fill="#59526D" transform="translate(343,164)"/>
<path d="M0 0 C0.33 0.66 0.66 1.32 1 2 C2.32 2.33 3.64 2.66 5 3 C1.7 3.66 -1.6 4.32 -5 5 C-3 1 -3 1 0 0 Z " fill="#464362" transform="translate(224,136)"/>
<path d="M0 0 C0.66 0.66 1.32 1.32 2 2 C0.02 3.98 -1.96 5.96 -4 8 C-4.66 7.67 -5.32 7.34 -6 7 C-4.60667426 3.63279613 -3.0210714 2.0140476 0 0 Z " fill="#57516E" transform="translate(411,251)"/>
<path d="M0 0 C3.3 0 6.6 0 10 0 C10 0.33 10 0.66 10 1 C8.329375 1.12375 8.329375 1.12375 6.625 1.25 C2.94246056 1.57873787 2.94246056 1.57873787 1.5625 4.0625 C1.376875 4.701875 1.19125 5.34125 1 6 C0.67 4.02 0.34 2.04 0 0 Z " fill="#6C6A90" transform="translate(249,212)"/>
<path d="M0 0 C0.66 0 1.32 0 2 0 C1.814375 0.7425 1.62875 1.485 1.4375 2.25 C1.00796892 4.94990963 1.14877026 6.44631077 2 9 C1.34 9 0.68 9 0 9 C-1.625 6.5 -1.625 6.5 -3 4 C-2.34 4 -1.68 4 -1 4 C-0.67 2.68 -0.34 1.36 0 0 Z " fill="#7A787B" transform="translate(371,200)"/>
<path d="M0 0 C2.64 0 5.28 0 8 0 C8.33 0.99 8.66 1.98 9 3 C11.01508358 3.73323796 11.01508358 3.73323796 13 4 C11 5 11 5 8.3984375 4.22265625 C6.90183594 3.64837891 6.90183594 3.64837891 5.375 3.0625 C4.37210937 2.68222656 3.36921875 2.30195313 2.3359375 1.91015625 C1.56507813 1.60980469 0.79421875 1.30945313 0 1 C0 0.67 0 0.34 0 0 Z " fill="#706F88" transform="translate(300,145)"/>
<path d="M0 0 C0.66 0.33 1.32 0.66 2 1 C2 1.66 2 2.32 2 3 C1.01 3.495 1.01 3.495 0 4 C0.33 5.32 0.66 6.64 1 8 C-0.9375 7.1875 -0.9375 7.1875 -3 6 C-3.33 5.01 -3.66 4.02 -4 3 C-2.68 2.01 -1.36 1.02 0 0 Z " fill="#8E8A8D" transform="translate(374,255)"/>
<path d="M0 0 C0.33 0.66 0.66 1.32 1 2 C-2.48520451 5.48520451 -4.04613656 6.3538439 -9 7 C-6.3765992 4.08511023 -3.28183606 2.11496102 0 0 Z " fill="#7F7D95" transform="translate(397,254)"/>
<path d="M0 0 C1.485 0.99 1.485 0.99 3 2 C3 3.32 3 4.64 3 6 C3.66 6 4.32 6 5 6 C4.67 7.65 4.34 9.3 4 11 C1.6870518 8.6870518 1.50419025 7.52095125 0.875 4.375 C0.70742188 3.55773437 0.53984375 2.74046875 0.3671875 1.8984375 C0.24601562 1.27195313 0.12484375 0.64546875 0 0 Z " fill="#645F81" transform="translate(277,214)"/>
<path d="M0 0 C3 1 3 1 4.1875 2.875 C5 5 5 5 5 8 C4.01 7.67 3.02 7.34 2 7 C2 6.34 2 5.68 2 5 C1.34 4.67 0.68 4.34 0 4 C0 2.68 0 1.36 0 0 Z " fill="#5F5B5F" transform="translate(381,202)"/>
<path d="M0 0 C1.65 1.32 3.3 2.64 5 4 C4.67 4.66 4.34 5.32 4 6 C1.5625 5.625 1.5625 5.625 -1 5 C-1.33 4.34 -1.66 3.68 -2 3 C-1.34 3 -0.68 3 0 3 C0 2.01 0 1.02 0 0 Z " fill="#3C345C" transform="translate(398,192)"/>
<path d="M0 0 C4 4.75 4 4.75 4 7 C3.01 7 2.02 7 1 7 C-0.6875 5 -0.6875 5 -2 3 C-1 1 -1 1 0 0 Z " fill="#817B85" transform="translate(208,189)"/>
<path d="M0 0 C1.5625 1.75 1.5625 1.75 3 4 C2.6875 6.25 2.6875 6.25 2 8 C0.4375 6.8125 0.4375 6.8125 -1 5 C-0.6875 2.3125 -0.6875 2.3125 0 0 Z " fill="#5E5579" transform="translate(271,162)"/>
<path d="M0 0 C2.64 0 5.28 0 8 0 C8.33 1.65 8.66 3.3 9 5 C8.1646875 4.566875 8.1646875 4.566875 7.3125 4.125 C4.91505355 2.9586747 2.48403061 1.9660119 0 1 C0 0.67 0 0.34 0 0 Z " fill="#5E5C7B" transform="translate(333,159)"/>
<path d="M0 0 C3.82097239 0.53069061 6.06171403 1.49701566 9 4 C6.03 3.67 3.06 3.34 0 3 C0 2.01 0 1.02 0 0 Z " fill="#615D7C" transform="translate(329,144)"/>
<path d="M0 0 C2.64 0 5.28 0 8 0 C4.99382731 3.00617269 2.17618402 2.59585316 -2 3 C-1.34 2.67 -0.68 2.34 0 2 C0 1.34 0 0.68 0 0 Z " fill="#5A5471" transform="translate(391,262)"/>
<path d="M0 0 C0.99 0.66 1.98 1.32 3 2 C-2.75 5 -2.75 5 -5 5 C-5.33 4.01 -5.66 3.02 -6 2 C-3.1875 0.875 -3.1875 0.875 0 0 Z " fill="#797078" transform="translate(380,257)"/>
<path d="M0 0 C2.31 0.66 4.62 1.32 7 2 C6.67 2.66 6.34 3.32 6 4 C4.68 3.67 3.36 3.34 2 3 C1.67 3.66 1.34 4.32 1 5 C0.34 4.67 -0.32 4.34 -1 4 C-0.67 2.68 -0.34 1.36 0 0 Z " fill="#302E54" transform="translate(320,234)"/>
<path d="M0 0 C0.66 0 1.32 0 2 0 C2 0.66 2 1.32 2 2 C2.99 2.33 3.98 2.66 5 3 C5 4.98 5 6.96 5 9 C2.67527795 6.14693203 1.2491742 3.45925163 0 0 Z " fill="#5A5671" transform="translate(396,211)"/>
<path d="M0 0 C2.8751945 1.28888029 5.0071564 2.53266983 7 5 C7.6875 7.1875 7.6875 7.1875 8 9 C5.06799526 6.14723863 2.35684596 3.34920216 0 0 Z " fill="#787693" transform="translate(383,195)"/>
<path d="M0 0 C0.99 0.33 1.98 0.66 3 1 C3.8125 2.8125 3.8125 2.8125 4 5 C3.34 6.32 2.68 7.64 2 9 C1.34 6.03 0.68 3.06 0 0 Z " fill="#4B4378" transform="translate(268,190)"/>
<path d="M0 0 C1.32 0 2.64 0 4 0 C4 0.66 4 1.32 4 2 C4.66 2 5.32 2 6 2 C5.34 3.65 4.68 5.3 4 7 C3.71125 6.401875 3.4225 5.80375 3.125 5.1875 C1.95257974 2.80672208 1.95257974 2.80672208 0 0 Z " fill="#181546" transform="translate(380,188)"/>
<path d="M0 0 C3.36591866 1.44253657 5.51047079 3.33264727 8 6 C7.01 6.495 7.01 6.495 6 7 C5.566875 6.525625 5.13375 6.05125 4.6875 5.5625 C2.97690387 3.76313043 2.97690387 3.76313043 0 3 C0 2.01 0 1.02 0 0 Z " fill="#746F86" transform="translate(381,176)"/>
<path d="M0 0 C0 0.66 0 1.32 0 2 C0.99 2.33 1.98 2.66 3 3 C-1.16138263 3.08159574 -4.9472484 2.98248524 -9 2 C-9 1.67 -9 1.34 -9 1 C-2.25 0 -2.25 0 0 0 Z " fill="#716C88" transform="translate(280,137)"/>
<path d="M0 0 C3.3 0.33 6.6 0.66 10 1 C10 1.33 10 1.66 10 2 C6.37 2.33 2.74 2.66 -1 3 C-0.67 2.01 -0.34 1.02 0 0 Z " fill="#817E92" transform="translate(265,124)"/>
<path d="M0 0 C-1 1.5 -1 1.5 -3 3 C-5.71846235 3.27345479 -8.25677199 3.13491285 -11 3 C-10 1 -10 1 -6.625 -0.1875 C-3 -1 -3 -1 0 0 Z " fill="#7E7B93" transform="translate(225,125)"/>
<path d="M0 0 C2.31 0.33 4.62 0.66 7 1 C6.67 1.66 6.34 2.32 6 3 C4.02 3 2.04 3 0 3 C0 2.01 0 1.02 0 0 Z " fill="#16103E" transform="translate(321,279)"/>
<path d="M0 0 C0.66 0.33 1.32 0.66 2 1 C2 2.66666667 2 4.33333333 2 6 C0.68 6 -0.64 6 -2 6 C-2.33 5.01 -2.66 4.02 -3 3 C-2.01 2.67 -1.02 2.34 0 2 C0 1.34 0 0.68 0 0 Z " fill="#120D3D" transform="translate(398,254)"/>
<path d="M0 0 C0.99 0.33 1.98 0.66 3 1 C1.25 5.875 1.25 5.875 -1 7 C-1.04254356 5.00045254 -1.04080783 2.99958364 -1 1 C-0.67 0.67 -0.34 0.34 0 0 Z " fill="#413D5F" transform="translate(414,245)"/>
<path d="M0 0 C3.65316671 1.24976756 4.78065836 1.67098753 7 5 C4.03 4.505 4.03 4.505 1 4 C0.67 2.68 0.34 1.36 0 0 Z " fill="#57536F" transform="translate(365,164)"/>
<path d="M0 0 C1.32 0 2.64 0 4 0 C4 0.66 4 1.32 4 2 C4.66 2.33 5.32 2.66 6 3 C4.02 3.99 4.02 3.99 2 5 C2 4.34 2 3.68 2 3 C1.34 3 0.68 3 0 3 C0 2.01 0 1.02 0 0 Z " fill="#7F7B7E" transform="translate(214,157)"/>
<path d="M0 0 C2.31 0.33 4.62 0.66 7 1 C7 1.66 7 2.32 7 3 C6.01 3.33 5.02 3.66 4 4 C4 3.34 4 2.68 4 2 C2.68 1.67 1.36 1.34 0 1 C0 0.67 0 0.34 0 0 Z " fill="#636262" transform="translate(302,153)"/>
</svg>
